<svg version="1.2" xmlns="http://www.w3.org/2000/svg" viewBox="0 0 180 180" width="180" height="180">
	<style>
		.s0 { fill: #16161d } 
		.s1 { fill: #f08218 } 
	</style>
	<g id="Capa_1-2">
		<g>
			<g>
				<path class="s0" d="m233.19 37.72q3.71-0.01 6.46-1.03 2.73-1.03 3.89-1.99l2.27 4.44q-1.36 1.2-4.74 2.44-3.37 1.25-8.08 1.25-4.42 0-8.19-1.57-3.78-1.58-6.61-4.39-2.85-2.82-4.42-6.57c-1.05-2.49-1.6-5.21-1.6-8.11q0-4.35 1.57-8.13 1.58-3.78 4.4-6.62 2.84-2.84 6.61-4.41 3.79-1.59 8.21-1.6 4.72 0 8.09 1.25 3.36 1.24 4.74 2.44l-2.27 4.44q-1.16-1.01-3.9-2.02-2.72-1.01-6.46-1.02-3.39-0.01-6.19 1.15-2.8 1.15-4.89 3.24-2.07 2.1-3.2 4.94-1.12 2.86-1.12 6.19c0 2.22 0.38 4.35 1.12 6.24q1.13 2.86 3.2 4.97c1.37 1.4 3.02 2.49 4.89 3.24q2.81 1.16 6.19 1.15z"/>
				<path class="s0" d="m271.82 42.11v-4.84q-0.23 0.75-1.4 2.09-1.17 1.35-3.17 2.4-2.01 1.08-4.74 1.07-3.46 0-6.24-1.62-2.8-1.64-4.44-4.59-1.65-2.95-1.65-6.91 0-3.97 1.65-6.92 1.64-2.95 4.44-4.59 2.8-1.65 6.24-1.65 2.69 0 4.67 0.98 1.98 0.97 3.17 2.24 1.2 1.27 1.39 2.17v-4.66h5.2v24.83h-5.15zm-16.44-12.4q0 2.68 1.17 4.66c0.8 1.32 1.8 2.32 3.07 3.05q1.87 1.08 4.04 1.07 2.29-0.01 4.12-1.1 1.81-1.08 2.87-3.07 1.05-1.99 1.05-4.61 0-2.63-1.05-4.62-1.06-1.98-2.87-3.1c-1.22-0.72-2.57-1.09-4.12-1.09q-2.13 0-4.04 1.09c-1.27 0.73-2.27 1.75-3.07 3.05-0.8 1.3-1.17 2.87-1.17 4.67z"/>
				<path class="s0" d="m297.9 16.55q2.44 0.01 4.77 1.03 2.32 1.04 3.82 3.24 1.49 2.22 1.49 5.79v15.5h-5.31v-14.45q0-3.7-1.73-5.37-1.71-1.68-4.44-1.67-1.79 0.01-3.44 1.02-1.65 1.01-2.7 2.77-1.05 1.77-1.05 4.02v13.7h-5.26v-24.85h5.26v4.41q0.27-1.01 1.48-2.24 1.19-1.21 3.09-2.05 1.87-0.85 4.04-0.85z"/>
				<path class="s0" d="m326.58 38.49q2.35 0 3.81-0.75 1.46-0.75 1.83-1.1l2.57 3.8q-0.3 0.27-1.45 0.87-1.13 0.59-2.9 1.07-1.76 0.48-4.01 0.48-3.42 0-6.34-1.52c-1.95-1.03-3.55-2.5-4.74-4.47q-1.8-2.93-1.8-7.16c0-2.83 0.6-5.25 1.8-7.19q1.79-2.92 4.74-4.45 2.92-1.5 6.34-1.52 2.21 0 3.94 0.53 1.72 0.53 2.84 1.17 1.13 0.64 1.48 0.97l-2.6 3.8q-0.24-0.23-0.92-0.75c-0.45-0.33-1.08-0.65-1.82-0.93q-1.17-0.41-2.75-0.42-1.94 0-3.77 1.05-1.83 1.04-3.02 3.02-1.16 1.98-1.17 4.72 0.01 2.74 1.17 4.74 1.19 1.97 3.02 3.02 1.83 1.05 3.77 1.05z"/>
				<path class="s0" d="m344.89 29.8q0 3.9 1.68 6.22 1.68 2.32 5.16 2.32c2.32 0 4.07-0.77 5.17-2.32q1.66-2.32 1.67-6.22v-12.52h5.19v13.25q0 3.64-1.4 6.41-1.39 2.77-4.09 4.35-2.69 1.56-6.54 1.54-3.85 0-6.51-1.54-2.68-1.58-4.09-4.35-1.41-2.77-1.4-6.41v-13.25h5.16z"/>
				<path class="s0" d="m384.8 16.55q2.44 0.01 4.77 1.03 2.32 1.04 3.82 3.24 1.49 2.22 1.49 5.79v15.5h-5.31v-14.45q0-3.7-1.72-5.37-1.72-1.68-4.45-1.67-1.79 0.01-3.44 1.02-1.65 1.01-2.7 2.77-1.04 1.77-1.04 4.02v13.7h-5.27v-24.85h5.27v4.41q0.26-1.01 1.47-2.24 1.19-1.21 3.09-2.05 1.88-0.85 4.05-0.85z"/>
				<path class="s0" d="m429.1 2.18h5.39l14.78 39.93h-5.54l-3.45-9.61h-16.94l-3.52 9.61h-5.54zm-4.12 25.66h13.65l-6.79-19.3h-0.1c0 0-6.79 19.3-6.76 19.3z"/>
				<path class="s0" d="m456.65 8.77q-1.41-0.01-2.44-1.03-1.04-1.01-1.03-2.44 0.01-1.43 1.03-2.45 1.02-1.03 2.44-1.02 0.93-0.01 1.75 0.47c0.53 0.33 0.97 0.75 1.27 1.25 0.3 0.5 0.48 1.1 0.48 1.75q-0.01 1.41-1.03 2.44-1.04 1.02-2.47 1.03zm-2.67 33.34v-24.83h5.27v24.83z"/>
				<path class="s0" d="m472.45 42.11h-5.24v-24.83h5.24v4.29h-0.15q0.15-0.78 1.13-1.97c0.64-0.78 1.52-1.5 2.67-2.12q1.68-0.95 4.04-0.95 1.73-0.01 3.04 0.47 1.31 0.48 1.88 0.93l-2.15 4.36q-0.42-0.42-1.47-0.87-1.05-0.45-2.62-0.45-1.99 0.01-3.42 1.25-1.43 1.24-2.17 2.97-0.75 1.76-0.75 3.22v13.67z"/>
				<path class="s0" d="m493.79 54.69h-5.24v-37.41h5.32v4.66q0.25-0.95 1.52-2.19 1.24-1.28 3.34-2.22 2.11-0.95 4.82-0.95 3.45 0 6.11 1.64c1.78 1.1 3.2 2.63 4.2 4.6q1.52 2.95 1.52 6.91 0 3.96-1.57 6.91-1.58 2.95-4.27 4.6-2.7 1.63-6.19 1.62-2.81 0-4.92-1.05-2.09-1.05-3.29-2.4-1.19-1.34-1.37-2.12v17.42zm16.42-24.98q-0.01-2.69-1.1-4.67-1.12-1.97-2.92-3.04-1.82-1.09-3.94-1.1-2.33 0.01-4.25 1.1-1.9 1.12-3.02 3.09-1.12 1.99-1.12 4.62 0 2.63 1.12 4.62 1.12 1.98 3.02 3.07 1.9 1.09 4.25 1.1 2.12 0 3.94-1.08 1.8-1.07 2.92-3.04 1.09-1.96 1.1-4.67z"/>
				<path class="s0" d="m532.37 42.83q-3.85 0-6.81-1.72-2.99-1.72-4.67-4.67-1.69-2.95-1.69-6.66 0-3.71 1.69-6.71 1.7-2.99 4.67-4.75 3-1.75 6.81-1.74 3.82-0.01 6.77 1.74 2.94 1.76 4.62 4.75 1.65 3 1.67 6.71 0 3.71-1.67 6.66-1.66 2.95-4.62 4.67-2.95 1.72-6.77 1.72zm0-4.51q2.43 0 4.22-1.13 1.79-1.12 2.8-3.07 1-1.95 1-4.39 0-2.43-1-4.42-1.01-1.95-2.8-3.12-1.79-1.15-4.22-1.15-2.43 0-4.26 1.15c-1.23 0.78-2.15 1.8-2.82 3.12q-1.02 1.99-1.03 4.42 0.01 2.44 1.03 4.39 1.01 1.95 2.82 3.07 1.79 1.13 4.26 1.13z"/>
				<path class="s0" d="m556.38 42.11h-5.24v-24.83h5.24v4.29h-0.15q0.15-0.78 1.13-1.97c0.65-0.78 1.52-1.5 2.67-2.12q1.68-0.95 4.04-0.95 1.73-0.01 3.05 0.47 1.31 0.48 1.87 0.93l-2.15 4.36q-0.42-0.42-1.47-0.87-1.05-0.45-2.62-0.45-1.99 0.01-3.42 1.25-1.42 1.24-2.17 2.97-0.75 1.76-0.75 3.22v13.67z"/>
				<path class="s0" d="m570.63 17.28h4.87v-10.21h5.24v10.18h6.39v4.52h-6.39v12.28q0 2.18 0.78 3.19c0.52 0.7 1.19 1.03 2.07 1.03q1.16-0.01 1.79-0.43 0.64-0.42 0.75-0.57l2.1 3.87c0 0-0.45 0.3-0.97 0.57q-0.79 0.41-2.03 0.75-1.24 0.33-2.89 0.32c-1.95 0-3.54-0.6-4.87-1.77q-1.94-1.76-1.94-5.61v-13.68h-4.87v-4.52z"/>
			</g>
			<g>
				<path class="s0" d="m226.57 81.39h-15.42v-12.83h45.4v12.83h-15.38v51.76h-14.62v-51.76z"/>
				<path class="s0" d="m264.16 68.56h26.33q5.61 0 10.03 2.35 4.42 2.35 6.96 6.79 2.58 4.42 2.57 10.56 0 6.12-2.17 10-2.17 3.9-5.21 5.82-3.04 1.94-5.62 2.32l15.7 26.75h-16.45l-14-25.63h-3.52v25.63h-14.62zm14.62 28.83h6.47q3.92 0.01 6.83-1.9 2.94-1.9 2.95-6.76c0-3.25-0.97-5.47-2.9-6.74q-2.88-1.87-6.81-1.87h-6.56c0 0 0 17.27 0.02 17.27z"/>
				<path class="s0" d="m338.58 68.56h14.53l25.48 64.59h-15.6l-4.69-12.97h-24.86l-4.74 12.97h-15.65zm-0.25 38.81h15.12l-7.48-21.19h-0.15z"/>
				<path class="s0" d="m397.31 81.97l1.07 0.2v50.98h-14.63v-64.59h19.97l26.18 50.89-1.07 0.2v-51.09h14.62v64.59h-20.06z"/>
				<path class="s0" d="m478.04 67.39q6.02 0.01 10.51 1.32 4.5 1.33 7.24 2.8 2.74 1.46 3.32 1.95l-7.04 11.78q-0.79-0.6-2.67-1.73-1.89-1.13-4.44-1.99c-1.73-0.6-3.5-0.88-5.37-0.88q-3.78 0-6.09 1.35-2.32 1.34-2.32 3.99 0.01 1.81 1.25 3.25 1.23 1.45 3.82 2.74 2.57 1.3 6.53 2.82c2.43 0.88 4.67 1.93 6.82 3.15q3.19 1.81 5.59 4.29 2.41 2.47 3.84 5.69 1.42 3.22 1.42 7.34 0 4.9-1.99 8.48-2.02 3.59-5.47 5.94-3.45 2.37-7.83 3.5-4.38 1.13-9.09 1.15-6.66 0-11.9-1.53-5.28-1.52-8.49-3.27-3.23-1.75-3.87-2.34l7.29-12.28q0.59 0.45 2.27 1.42 1.68 0.98 4.14 2.02 2.44 1.05 5.22 1.8 2.77 0.74 5.47 0.72 4.48 0.01 6.76-1.74 2.25-1.72 2.25-4.57 0-2.11-1.43-3.77-1.42-1.66-4.27-3.17-2.85-1.5-7.08-3.14-4.26-1.71-7.96-4.17-3.71-2.44-5.99-6.11-2.29-3.68-2.3-9.11 0-5.44 3.07-9.41 3.07-4.01 8.09-6.14 5.01-2.16 10.73-2.15z"/>
				<path class="s0" d="m509.34 68.56h23.48q6.22 0 11.21 2.18 4.99 2.16 7.96 6.61 2.96 4.42 2.97 11.08c0 4.44-1 8.14-2.97 11.23q-2.95 4.64-7.96 7.04-4.99 2.43-11.21 2.42h-8.86v24.03h-14.62zm14.62 29.03h4.8q2.98-0.01 5.36-0.87 2.37-0.89 3.8-2.82 1.42-1.95 1.42-5.12c0-2.12-0.48-3.87-1.42-5.12q-1.43-1.88-3.8-2.72-2.36-0.82-5.36-0.82h-4.8z"/>
				<path class="s0" d="m561.3 100.81q-0.01-7.05 2.5-13.13c1.67-4.04 3.99-7.61 6.98-10.63q4.5-4.56 10.56-7.09 6.07-2.54 13.1-2.54c4.7 0 9.16 0.84 13.18 2.54q6.03 2.55 10.53 7.09c3 3.02 5.29 6.59 6.94 10.63q2.47 6.1 2.47 13.13c0 4.69-0.8 9.13-2.39 13.18q-2.41 6.09-6.87 10.65-4.45 4.57-10.5 7.12-6.08 2.54-13.36 2.54c-4.84 0-9.46-0.85-13.52-2.54q-6.1-2.55-10.51-7.12c-2.95-3.04-5.19-6.61-6.79-10.65q-2.36-6.11-2.37-13.18zm15.22 0q0 5.53 2.28 10.01 2.27 4.49 6.31 7.11 4.04 2.65 9.36 2.64c3.54 0 6.69-0.87 9.36-2.64q4.02-2.66 6.31-7.11 2.28-4.48 2.27-10.01 0.01-5.54-2.27-9.98-2.28-4.46-6.31-7.12-4.05-2.66-9.36-2.67c-3.55 0-6.69 0.9-9.36 2.67q-4.04 2.66-6.31 7.12-2.28 4.44-2.28 9.98z"/>
				<path class="s0" d="m635.67 68.56h26.33q5.62 0 10.04 2.35 4.41 2.35 6.96 6.79 2.58 4.42 2.57 10.56 0 6.12-2.17 10-2.18 3.9-5.22 5.82-3.03 1.94-5.61 2.32l15.7 26.75h-16.45l-14-25.63h-3.52v25.63h-14.63zm14.65 28.83h6.47q3.92 0.01 6.84-1.9 2.93-1.9 2.94-6.76c0-3.25-0.97-5.47-2.89-6.74q-2.89-1.87-6.82-1.87h-6.56v17.27z"/>
				<path class="s0" d="m703.76 81.39h-15.43v-12.83h45.4v12.83h-15.37v51.76h-14.63v-51.76z"/>
				<path class="s0" d="m755.42 68.56h14.52l25.51 64.59h-15.6l-4.69-12.97h-24.86l-4.74 12.97h-15.65l25.53-64.59zm-0.25 38.81h15.13l-7.49-21.19h-0.15z"/>
				<path class="s0" d="m806.36 81.39h-15.43v-12.83h45.4v12.83h-15.37v51.76h-14.63v-51.76z"/>
				<path fill-rule="evenodd" class="s0" d="m859.39 68.56v64.59h-14.62v-64.59z"/>
				<path class="s0" d="m868.65 100.81q-0.01-7.05 2.5-13.13 2.5-6.1 6.98-10.63 4.5-4.56 10.56-7.09 6.07-2.54 13.1-2.54c4.7 0 9.16 0.84 13.18 2.54q6.03 2.55 10.53 7.09 4.48 4.57 6.94 10.63 2.47 6.08 2.47 13.13c0 4.69-0.8 9.13-2.39 13.18q-2.41 6.09-6.87 10.65-4.45 4.57-10.5 7.12-6.08 2.54-13.36 2.54c-4.84 0-9.45-0.85-13.52-2.54q-6.1-2.55-10.51-7.12c-2.94-3.04-5.19-6.61-6.79-10.65q-2.36-6.11-2.37-13.18zm15.22 0q0 5.53 2.28 10.01 2.27 4.49 6.31 7.11 4.04 2.65 9.36 2.64c3.54 0 6.69-0.87 9.36-2.64q4.03-2.66 6.31-7.11 2.28-4.48 2.27-10.01 0.01-5.54-2.27-9.98-2.28-4.46-6.31-7.12-4.05-2.66-9.36-2.67c-3.54 0-6.69 0.9-9.36 2.67q-4.04 2.66-6.31 7.12-2.28 4.44-2.28 9.98z"/>
				<path class="s0" d="m956.87 81.97l1.08 0.2v50.98h-14.63v-64.59h19.97l26.18 50.89-1.07 0.2v-51.09h14.62v64.59h-20.06z"/>
			</g>
			<g>
				<path class="s0" d="m751.25 177.63h-12.48v-26.16h11.33q3.48 0.01 5.49 1.7c1.35 1.12 2.03 2.69 2.03 4.64q0 2.02-0.93 3.47-0.92 1.45-2.52 2.05 2.62 0.4 4.14 2.27 1.53 1.87 1.53 4.72 0 3.33-2.32 5.31-2.33 1.98-6.29 1.97zm-9.71-23.66v8.56h8.11q2.49 0.01 3.87-1.07 1.36-1.09 1.37-3.14c0-1.38-0.45-2.48-1.37-3.22q-1.36-1.13-3.87-1.13zm0 10.98v10.16h9.23q2.92 0 4.52-1.35 1.6-1.34 1.6-3.76c0-1.63-0.53-2.82-1.6-3.72q-1.6-1.32-4.52-1.33z"/>
				<path class="s0" d="m765.63 185.24q-1.94 0-2.87-0.52v-2.5q1.16 0.6 2.47 0.6 1.64 0 2.84-1.37c0.8-0.9 1.62-2.42 2.5-4.5l-8.04-17.37h3l6.39 14.2 6.21-14.2h2.92l-8.93 20.07q-2.43 5.61-6.47 5.61z"/>
				<path class="s0" d="m808 178.08q-5.64 0-9.53-3.82-3.82-3.83-3.82-9.71 0-5.87 3.82-9.68 3.85-3.85 9.61-3.85 4.98 0 8.28 2.5v2.79q-3.63-2.72-8.13-2.72c-3 0-5.64 1.03-7.69 3.1q-3.07 3.06-3.07 7.88c0 3.22 1 5.79 3.02 7.84q3.07 3.07 7.51 3.07 4.71 0.01 7.44-2.72v-10.16h2.72v11.26q-1.73 1.94-4.39 3.09c-1.77 0.75-3.72 1.15-5.77 1.13z"/>
				<path class="s0" d="m825.8 161.93q2.74-2.8 7.01-2.8c2.85 0 5.22 0.93 7.01 2.8q2.73 2.73 2.73 6.69 0 3.96-2.73 6.69c-1.82 1.82-4.19 2.77-7.01 2.77-2.82 0-5.19-0.93-7.01-2.77-1.82-1.85-2.72-4.05-2.72-6.69q-0.01-3.96 2.72-6.69zm14 6.69q0.01-2.99-1.97-5.04-1.99-2.02-5.02-2.02-3.03 0-5.01 2.02-1.98 2.05-1.98 5.04c0 1.99 0.65 3.64 1.98 5.01q1.98 2.03 5.01 2.03 3.03 0 5.02-2.03 1.98-2.05 1.97-5.01z"/>
				<path class="s0" d="m857.52 177.63h-2.77v-23.66h-9.01v-2.5h20.89v2.5h-9.11z"/>
				<path class="s0" d="m869.95 177.63h-2.7v-18.05h2.7v3.45q1.01-1.77 2.99-2.82 1.99-1.06 4.2-1.08v2.72q-1.24 0-2.25 0.33-1.72 0.45-3.02 1.55-1.3 1.09-1.9 2.49v11.41z"/>
				<path class="s0" d="m886.4 178.08q-2.88 0-4.9-1.58-1.97-1.64-1.97-4.41c0-1.85 0.7-3.27 2.1-4.37q2.09-1.6 5.31-1.6 3.52 0 6.52 1.75v-1.8q0-4.52-5.94-4.51-3.18-0.01-5.92 1.82v-2.62q2.66-1.65 6.47-1.65c2.54 0 4.41 0.57 5.89 1.75 1.44 1.14 2.19 2.82 2.19 4.94v7.44q0 1.04 0.48 1.64 0.45 0.6 1.25 0.6 0.59 0 1.04-0.22v2.09q-0.6 0.41-1.79 0.4-1.34 0-2.27-0.72-0.92-0.72-1.15-2.15-2.73 3.18-7.29 3.17zm0.75-2.42q1.86 0.01 3.54-0.85 1.68-0.86 2.72-2.17v-2.49q-2.76-1.8-5.86-1.8-2.47 0-3.9 0.97-1.43 0.97-1.44 2.65c0 1.12 0.45 2.07 1.37 2.72q1.37 0.97 3.57 0.97z"/>
				<path class="s0" d="m905.94 165.45v12.18h-2.7v-18.05h2.7v2.77q2.87-3.22 7.21-3.22 3.33 0 5.09 1.98c1.17 1.29 1.77 3.17 1.77 5.54v10.98h-2.69v-10.38q0-5.58-5.12-5.57-1.86-0.01-3.62 1.15-1.79 1.16-2.64 2.62z"/>
				<path class="s0" d="m932.17 178.08q-2.18 0-4.25-0.55-2.07-0.53-3.24-1.32v-2.78q3.3 2.21 7.39 2.2 2.32 0.01 3.64-0.77 1.32-0.78 1.32-2.12 0-1.16-1.27-1.9-0.37-0.3-1.9-0.67-0.44-0.15-1.22-0.3-1-0.27-1.22-0.3-3.41-0.86-4.87-2.05-1.45-1.19-1.45-3.42 0-2.36 1.9-3.67 1.9-1.31 5.34-1.32 4.09-0.01 6.57 1.6v2.64q-3.07-1.83-6.47-1.82-2.28-0.01-3.44 0.7-1.17 0.71-1.18 1.95 0 1.34 1.38 2.02 0.27 0.07 0.65 0.25 0.38 0.17 0.79 0.27l0.83 0.23q0.9 0.29 1.8 0.4 3.36 0.82 4.94 2.02 1.58 1.19 1.59 3.39 0 2.47-2.17 3.84-2.16 1.43-5.49 1.43z"/>
				<path class="s0" d="m949.16 161.93v15.7h-2.69v-15.7h-3.6v-2.35h3.6v-3.02q0-2.51 1.35-3.94 1.34-1.43 3.81-1.45 2.29 0.02 3.82 0.7v2.47q-1.79-0.75-3.14-0.75-3.15 0-3.15 3.47v2.5h6.29v2.34c0 0-6.29 0-6.29 0.03z"/>
				<path class="s0" d="m967.68 178.08q-4.23 0-7.09-2.65-2.84-2.62-2.84-6.81c0-2.8 0.85-4.94 2.54-6.77q2.58-2.72 6.62-2.72 2.16 0.01 3.84 0.88 1.68 0.86 2.65 2.29 0.96 1.42 1.44 3.02 0.48 1.6 0.48 3.2v0.75h-14.83q0.22 2.92 2.35 4.64 2.1 1.73 5.37 1.75c2.17 0 4.01-0.55 5.79-1.68v2.4q-2.21 1.73-6.32 1.7zm-7.14-11.03h12.08q-0.11-2.09-1.57-3.77-1.38-1.72-4.27-1.72-2.69 0-4.41 1.64-1.68 1.68-1.83 3.85z"/>
				<path class="s0" d="m983.06 177.63h-2.7v-18.05h2.7v3.45q1.01-1.77 2.99-2.82 1.98-1.06 4.19-1.08v2.72q-1.23 0-2.24 0.33-1.72 0.45-3.02 1.55-1.31 1.09-1.9 2.49v11.41z"/>
				<path class="s0" d="m1000.3 178.08q-2.18 0-4.24-0.55-2.07-0.53-3.25-1.32v-2.78q3.3 2.21 7.39 2.2 2.33 0.01 3.64-0.77 1.32-0.78 1.33-2.12 0-1.16-1.28-1.9-0.36-0.3-1.89-0.67-0.45-0.15-1.22-0.3-1.01-0.27-1.23-0.3-3.4-0.86-4.86-2.05-1.46-1.19-1.45-3.42-0.01-2.36 1.89-3.67 1.91-1.31 5.35-1.32 4.08-0.01 6.56 1.6v2.64q-3.06-1.83-6.46-1.82-2.29-0.01-3.45 0.7-1.17 0.71-1.17 1.95-0.01 1.34 1.37 2.02 0.27 0.07 0.65 0.25 0.38 0.17 0.8 0.27l0.82 0.23q0.9 0.29 1.8 0.4 3.37 0.82 4.94 2.02 1.59 1.19 1.6 3.39 0 2.47-2.17 3.84-2.17 1.43-5.49 1.43z"/>
			</g>
			<path class="s1" d="m48.2 113.34l-40.23 40.23c-2.22 2.22-6.01 0.65-6.01-2.47v-132.05c0-9.74 7.86-17.6 17.59-17.6h132.05c3.14 0 4.69 3.8 2.5 6.02l-42.36 42.4h-0.02c-1.4 0.42-2.85 0.03-4.32-0.32 0 0-61.12-14.88-68.31-16.53-1.52-0.34-3.12-0.57-4.67-0.57-1.64 0-3.11 0.75-3.71 2.47-0.58 1.65 0.52 2.72 1.64 3.62 1.95 1.52 37.04 23.21 53.01 32 1.92 1.04 3.07 1.69 3.37 2.32l-27.95 27.95c-3.42 1.35-7.24 1.57-11.71 0.52-1.94-0.47-4.04-0.35-6.11-0.55-1.67-0.15-3.34 0.18-4.79 1-2.05 1.18-4.19 2.72-4.19 5.12 0 2.39 2.82 2.57 4.56 3.17 3.25 1.17 6.47 2.22 9.74 3.27z"/>
			<path class="s1" d="m178.13 27.98v132.05c0 9.71-7.86 17.6-17.6 17.6h-132.05c-3.14 0-4.69-3.8-2.49-6.02l40.28-40.28c1.1 3.35 2.25 6.62 3.42 9.88 0.62 1.8 0.6 4.65 3.07 4.67 2.67 0.03 4.02-2.39 5.24-4.57 0.85-1.57 0.77-3.34 0.7-5.04-0.25-4.46-0.67-8.91-0.87-13.32-0.08-1.23 0.07-2.42 0.39-3.55l28.26-28.25c0.8 0.17 33.94 55.41 35.26 56.65 2.35 2.12 4.19 1.18 5.39-1.44 0.75-1.65 0.15-3.42-0.2-5.07-1.99-8.36-16.67-69.03-16.87-70.06-0.25-1.29-0.32-2.57 0.18-3.84l41.92-41.93c2.23-2.22 6.02-0.65 6.02 2.5z"/>
		</g>
	</g>
</svg>