<svg width="56" height="56" viewBox="0 0 56 56" fill="none" xmlns="http://www.w3.org/2000/svg">
<path d="M27.9569 9.6665C33.0749 9.6665 37.41 11.4425 40.9621 14.9946C44.5142 18.5467 46.2902 22.8818 46.2902 27.9998C46.2902 33.1179 44.5142 37.453 40.9621 41.005C37.41 44.5571 33.0749 46.3332 27.9569 46.3332C22.8388 46.3332 18.5037 44.5571 14.9517 41.005C11.3996 37.453 9.62354 33.1179 9.62354 27.9998C9.62354 22.8818 11.3996 18.5467 14.9517 14.9946C18.5037 11.4425 22.8388 9.6665 27.9569 9.6665ZM27.9569 41.7498C31.7763 41.7498 35.0228 40.413 37.6965 37.7394C40.3701 35.0658 41.7069 31.8193 41.7069 27.9998C41.7069 24.1804 40.3701 20.9339 37.6965 18.2603C35.0228 15.5866 31.7763 14.2498 27.9569 14.2498C24.1374 14.2498 20.8909 15.5866 18.2173 18.2603C15.5437 20.9339 14.2069 24.1804 14.2069 27.9998C14.2069 31.8193 15.5437 35.0658 18.2173 37.7394C20.8909 40.413 24.1374 41.7498 27.9569 41.7498ZM27.9569 36.0207C29.7902 36.0207 31.4326 35.4959 32.884 34.4463C34.3353 33.3967 35.3666 32.0118 35.9777 30.2915H19.936C20.5471 32.0103 21.5784 33.3952 23.0298 34.4463C24.4812 35.4974 26.1235 36.0222 27.9569 36.0207ZM19.936 23.4165C19.936 24.0658 20.156 24.6105 20.596 25.0505C21.036 25.4905 21.5799 25.7097 22.2277 25.7082C22.877 25.7082 23.4217 25.4882 23.8617 25.0482C24.3017 24.6082 24.5209 24.0643 24.5194 23.4165C24.5194 22.7672 24.2994 22.2233 23.8594 21.7848C23.4194 21.3464 22.8755 21.1264 22.2277 21.1248C21.5784 21.1248 21.0345 21.3448 20.596 21.7848C20.1576 22.2248 19.9376 22.7687 19.936 23.4165ZM31.3944 23.4165C31.3944 24.0658 31.6144 24.6105 32.0544 25.0505C32.4944 25.4905 33.0383 25.7097 33.686 25.7082C34.3353 25.7082 34.88 25.4882 35.32 25.0482C35.76 24.6082 35.9792 24.0643 35.9777 23.4165C35.9777 22.7672 35.7577 22.2233 35.3177 21.7848C34.8777 21.3464 34.3338 21.1264 33.686 21.1248C33.0367 21.1248 32.4928 21.3448 32.0544 21.7848C31.6159 22.2248 31.3959 22.7687 31.3944 23.4165ZM2.74854 14.2498V9.6665C2.74854 7.75678 3.41694 6.13352 4.75374 4.79671C6.09055 3.45991 7.71381 2.7915 9.62354 2.7915H14.2069V7.37484H9.62354C8.97423 7.37484 8.43034 7.59484 7.99187 8.03484C7.5534 8.47484 7.3334 9.01873 7.33187 9.6665V14.2498H2.74854ZM9.62354 53.2082C7.71381 53.2082 6.09055 52.5398 4.75374 51.203C3.41694 49.8662 2.74854 48.2429 2.74854 46.3332V41.7498H7.33187V46.3332C7.33187 46.9825 7.55187 47.5271 7.99187 47.9671C8.43187 48.4071 8.97576 48.6264 9.62354 48.6248H14.2069V53.2082H9.62354ZM41.7069 53.2082V48.6248H46.2902C46.9395 48.6248 47.4842 48.4048 47.9242 47.9648C48.3642 47.5248 48.5834 46.9809 48.5819 46.3332V41.7498H53.1652V46.3332C53.1652 48.2429 52.4968 49.8662 51.16 51.203C49.8232 52.5398 48.1999 53.2082 46.2902 53.2082H41.7069ZM48.5819 14.2498V9.6665C48.5819 9.0172 48.3619 8.47331 47.9219 8.03484C47.4819 7.59637 46.938 7.37637 46.2902 7.37484H41.7069V2.7915H46.2902C48.1999 2.7915 49.8232 3.45991 51.16 4.79671C52.4968 6.13352 53.1652 7.75678 53.1652 9.6665V14.2498H48.5819Z" fill="#0056B1"/>
</svg>
