<svg width="56" height="56" viewBox="0 0 56 56" fill="none" xmlns="http://www.w3.org/2000/svg">
<path d="M27.7838 49.37C27.2491 49.37 26.7143 49.2745 26.1796 49.0835C25.6449 48.8925 25.1675 48.6061 24.7473 48.2241C22.2647 45.9325 20.0685 43.6981 18.1588 41.521C16.2491 39.3439 14.6548 37.2341 13.3761 35.1914C12.0958 33.1472 11.1218 31.1802 10.4542 29.2904C9.78655 27.4005 9.45197 25.5954 9.45044 23.8752C9.45044 18.146 11.2937 13.5818 14.9802 10.1825C18.6668 6.78315 22.9346 5.0835 27.7838 5.0835C32.6345 5.0835 36.9031 6.78315 40.5896 10.1825C44.2761 13.5818 46.1186 18.146 46.1171 23.8752C46.1171 25.5939 45.7833 27.399 45.1157 29.2904C44.448 31.1818 43.4741 33.1488 42.1938 35.1914C40.9135 37.2341 39.3185 39.3439 37.4088 41.521C35.4991 43.6981 33.3029 45.9325 30.8202 48.2241C30.4001 48.6061 29.9227 48.8925 29.3879 49.0835C28.8532 49.2745 28.3185 49.37 27.7838 49.37ZM27.7838 28.0002C29.0442 28.0002 30.1236 27.5518 31.0219 26.655C31.9202 25.7582 32.3686 24.6788 32.3671 23.4168C32.3671 22.1564 31.9187 21.0778 31.0219 20.181C30.1251 19.2842 29.0457 18.835 27.7838 18.8335C26.5234 18.8335 25.4447 19.2827 24.5479 20.181C23.6511 21.0793 23.202 22.1579 23.2004 23.4168C23.2004 24.6772 23.6496 25.7566 24.5479 26.655C25.4463 27.5533 26.5249 28.0017 27.7838 28.0002Z" fill="#0056B1"/>
</svg>
