<svg width="56" height="56" viewBox="0 0 56 56" fill="none" xmlns="http://www.w3.org/2000/svg">
<path d="M23.2869 49.4272V36.3647L26.4953 27.1981C26.6863 26.7779 26.9635 26.425 27.3272 26.1393C27.6908 25.8536 28.1392 25.71 28.6724 25.7085H45.4015C45.9363 25.7085 46.3854 25.8521 46.749 26.1393C47.1126 26.4266 47.3892 26.7795 47.5786 27.1981L50.7869 36.3647V49.4272C50.7869 49.8474 50.6441 50.2011 50.3584 50.4883C50.0727 50.7755 49.719 50.9184 49.2974 50.9168H47.6932C47.2731 50.9168 46.9201 50.774 46.6344 50.4883C46.3488 50.2026 46.2051 49.8489 46.2036 49.4272V47.4793H27.8703V49.4272C27.8703 49.8474 27.7274 50.2011 27.4417 50.4883C27.156 50.7755 26.8024 50.9184 26.3807 50.9168H24.7765C24.3564 50.9168 24.0035 50.774 23.7178 50.4883C23.4321 50.2026 23.2885 49.8489 23.2869 49.4272ZM27.8703 33.7293H46.2036L44.5994 29.146H29.4744L27.8703 33.7293ZM30.1619 42.896C30.8113 42.896 31.3559 42.676 31.7959 42.236C32.2359 41.796 32.4551 41.2521 32.4536 40.6043C32.4536 39.955 32.2336 39.4111 31.7936 38.9727C31.3536 38.5342 30.8097 38.3142 30.1619 38.3127C29.5126 38.3127 28.9688 38.5327 28.5303 38.9727C28.0918 39.4127 27.8718 39.9566 27.8703 40.6043C27.8703 41.2536 28.0903 41.7983 28.5303 42.2383C28.9703 42.6783 29.5142 42.8975 30.1619 42.896ZM43.9119 42.896C44.5613 42.896 45.1059 42.676 45.5459 42.236C45.9859 41.796 46.2051 41.2521 46.2036 40.6043C46.2036 39.955 45.9836 39.4111 45.5436 38.9727C45.1036 38.5342 44.5597 38.3142 43.9119 38.3127C43.2626 38.3127 42.7188 38.5327 42.2803 38.9727C41.8418 39.4127 41.6218 39.9566 41.6203 40.6043C41.6203 41.2536 41.8403 41.7983 42.2803 42.2383C42.7203 42.6783 43.2642 42.8975 43.9119 42.896ZM14.1203 32.5835V28.0002H18.7036V32.5835H14.1203ZM25.5786 18.8335V14.2502H30.1619V18.8335H25.5786ZM14.1203 41.7502V37.1668H18.7036V41.7502H14.1203ZM14.1203 50.9168V46.3335H18.7036V50.9168H14.1203ZM4.95361 50.9168V18.8335H16.4119V5.0835H39.3286V21.1252H34.7453V9.66683H20.9953V23.4168H9.53695V50.9168H4.95361Z" fill="#0056B1"/>
</svg>
